<svg xmlns="http://www.w3.org/2000/svg"  viewBox="0 0 64 64" width="48px" height="48px"><path d="M 41.849609 0 C 41.855609 0.002 41.859234 0.004859375 41.865234 0.005859375 L 41.849609 0 z M 32 3 C 26.469 3 21.453125 5.1534375 17.703125 8.6484375 L 25.548828 15.1875 L 35.345703 3.2929688 C 34.252703 3.1169688 33.141 3 32 3 z M 39.585938 4.4355469 L 29.804688 16.3125 C 30.503688 16.1125 31.238 16 32 16 C 36.418 16 40 19.582 40 24 C 40 24.099 39.988375 24.196922 39.984375 24.294922 L 49.667969 12.675781 C 47.280969 8.9597813 43.758938 6.0545469 39.585938 4.4355469 z M 17 7.2109375 L 17 7.2324219 L 17.007812 7.2226562 L 17 7.2109375 z M 15.046875 11.642578 C 12.512875 15.111578 11 19.374 11 24 C 11 26.711 11.459375 29.124469 12.234375 31.355469 L 23.005859 18.275391 L 15.046875 11.642578 z M 51.623047 16.574219 L 24.267578 49.402344 C 26.616578 52.701344 28.768984 56.350391 30.208984 60.775391 C 30.773984 62.510391 33.224062 62.510391 33.789062 60.775391 C 38.907062 45.058391 53 39.11 53 24 C 53 21.382 52.498047 18.885219 51.623047 16.574219 z M 24.033203 23.318359 L 14.068359 35.421875 C 16.131359 39.149875 18.978734 42.491281 21.802734 46.113281 L 33.722656 31.810547 C 33.166656 31.931547 32.592 32 32 32 C 27.582 32 24 28.418 24 24 C 24 23.77 24.014203 23.543359 24.033203 23.318359 z"/></svg>